<svg width="44" height="44" viewBox="0 0 44 44" fill="none" xmlns="http://www.w3.org/2000/svg">
<g id="Group">
<g id="Group_2">
<path id="Vector" d="M40.8301 0.934999C41.5048 0.934999 42.4563 1.02483 42.8926 1.79666C43.4169 2.72616 42.7991 3.75283 41.9448 5.17367C41.0079 6.72833 39.8438 8.6625 39.8438 10.813C39.8438 14.465 36.8683 17.435 33.2126 17.435C29.5551 17.435 26.5796 14.465 26.5796 10.813C26.5796 7.1005 30.8164 2.7885 35.4658 1.76733C38.0929 1.19167 39.7484 0.934999 40.8301 0.934999ZM41.1748 2.783C41.0886 2.77383 40.9749 2.76833 40.8301 2.76833C39.9116 2.76833 38.2854 3.02683 35.8599 3.5585C31.7349 4.46416 28.4129 8.2665 28.4129 10.813C28.4129 13.453 30.5671 15.6017 33.2126 15.6017C35.8581 15.6017 38.0104 13.453 38.0104 10.813C38.0104 8.15283 39.3763 5.885 40.3718 4.2295C40.6559 3.75833 41.0208 3.1515 41.1748 2.783Z" fill="black"/>
</g>
<g id="Group_3">
<path id="Vector_2" d="M2.07307 41.9412C3.56907 43.439 6.17057 43.4445 7.68674 41.9338L23.0317 26.1837L17.8342 20.9862L2.07491 36.3385C0.527571 37.8822 0.527573 40.3957 2.07307 41.9412Z" fill="black"/>
<path id="Vector_3" d="M24.3098 24.8691L30.2993 18.722C27.9783 17.8658 26.1505 16.038 25.2943 13.7188L19.1471 19.7065L24.3098 24.8691Z" fill="black"/>
</g>
<path id="Vector_4" d="M30.2463 6.435C30.4149 6.435 30.5561 6.45333 30.7101 6.4625C32.7543 6.6 33.3538 7.6285 34.0724 8.921C34.7618 10.153 35.6216 11.6472 37.8803 11.8855C38.0801 11.9075 38.2744 11.9332 38.4981 11.9332H39.7319C39.7943 11.5665 39.8456 11.1962 39.8456 10.8112C39.8456 10.571 39.8639 10.3345 39.8914 10.0998C40.1078 8.23533 41.1143 6.55233 41.9448 5.17183C42.7991 3.751 43.4169 2.72433 42.8926 1.79483C42.4563 1.023 41.5048 0.933167 40.8301 0.933167C39.7484 0.933167 38.0948 1.18983 35.4658 1.76733C33.4748 2.20367 31.5846 3.26333 30.0446 4.59983C29.3901 5.17 28.7924 5.77867 28.2956 6.43317L30.2463 6.435Z" fill="black"/>
</g>
</svg>
