<svg width="44" height="42" viewBox="0 0 44 42" fill="none" xmlns="http://www.w3.org/2000/svg">
<g id="Group">
<g id="Group_2">
<path id="Vector" d="M21.3508 28.0657C21.437 28.1518 21.536 28.2123 21.6387 28.2582C21.6423 28.26 21.6442 28.2637 21.6478 28.2655H21.6515C21.7633 28.3113 21.8807 28.3352 21.9998 28.3352C22.1172 28.3352 22.2363 28.3113 22.3463 28.2673C22.4563 28.2215 22.559 28.1555 22.647 28.0675L26.3137 24.4008C26.6712 24.0433 26.6712 23.4622 26.3137 23.1047C25.9562 22.7472 25.375 22.7472 25.0175 23.1047L22.9165 25.2038V18.25C22.9165 17.744 22.5058 17.3333 21.9998 17.3333C21.4938 17.3333 21.0832 17.744 21.0832 18.25V25.2038L18.9822 23.1028C18.6247 22.7453 18.0435 22.7453 17.686 23.1028C17.3285 23.4603 17.3285 24.0415 17.686 24.399L21.3508 28.0657ZM14.6665 32H29.3332C29.8392 32 30.2498 31.5893 30.2498 31.0833V27.4167C30.2498 26.9107 29.8392 26.5 29.3332 26.5C28.8272 26.5 28.4165 26.9107 28.4165 27.4167V30.1667H15.5832V27.4167C15.5832 26.9107 15.1725 26.5 14.6665 26.5C14.1605 26.5 13.7498 26.9107 13.7498 27.4167V31.0833C13.7498 31.5893 14.1605 32 14.6665 32ZM38.4998 0.833344H5.49984C2.9735 0.833344 0.916504 2.89034 0.916504 5.41668V36.5833C0.916504 39.1097 2.9735 41.1667 5.49984 41.1667H38.4998C41.0262 41.1667 43.0832 39.1097 43.0832 36.5833V5.41668C43.0832 2.89034 41.0262 0.833344 38.4998 0.833344ZM12.8332 4.50001C13.3392 4.50001 13.7498 4.91068 13.7498 5.41668C13.7498 5.92268 13.3392 6.33334 12.8332 6.33334C12.3272 6.33334 11.9165 5.92268 11.9165 5.41668C11.9165 4.91068 12.3272 4.50001 12.8332 4.50001ZM9.1665 4.50001C9.6725 4.50001 10.0832 4.91068 10.0832 5.41668C10.0832 5.92268 9.6725 6.33334 9.1665 6.33334C8.6605 6.33334 8.24984 5.92268 8.24984 5.41668C8.24984 4.91068 8.6605 4.50001 9.1665 4.50001ZM5.49984 4.50001C6.00584 4.50001 6.4165 4.91068 6.4165 5.41668C6.4165 5.92268 6.00584 6.33334 5.49984 6.33334C4.99384 6.33334 4.58317 5.92268 4.58317 5.41668C4.58317 4.91068 4.99384 4.50001 5.49984 4.50001ZM41.2498 36.5833C41.2498 38.0995 40.016 39.3333 38.4998 39.3333H5.49984C3.98367 39.3333 2.74984 38.0995 2.74984 36.5833V10H41.2498V36.5833Z" fill="black"/>
</g>
</g>
</svg>
