<svg width="44" height="44" viewBox="0 0 44 44" fill="none" xmlns="http://www.w3.org/2000/svg">
<g id="Type-Tool">
<path id="Vector" d="M41.2502 1.83333H2.75016C2.24416 1.83333 1.8335 2.24399 1.8335 2.74999V11.9167C1.8335 12.4227 2.24416 12.8333 2.75016 12.8333C3.25616 12.8333 3.66683 12.4227 3.66683 11.9167C3.66683 10.4005 4.90066 9.16666 6.41683 9.16666H18.3335V37.5833C18.3335 39.0995 17.0997 40.3333 15.5835 40.3333C15.0775 40.3333 14.6668 40.744 14.6668 41.25C14.6668 41.756 15.0775 42.1667 15.5835 42.1667H28.4168C28.4315 42.1667 28.4462 42.1667 28.4535 42.1667C28.9595 42.1667 29.3702 41.756 29.3702 41.25C29.3702 40.744 28.9595 40.3333 28.4535 40.3333H28.4352C28.4315 40.3333 28.4242 40.3333 28.4168 40.3333C26.9007 40.3333 25.6668 39.0995 25.6668 37.5833V9.16666H37.5835C39.0997 9.16666 40.3335 10.4005 40.3335 11.9167C40.3335 12.4227 40.7442 12.8333 41.2502 12.8333C41.7562 12.8333 42.1668 12.4227 42.1668 11.9167V2.74999C42.1668 2.24399 41.7562 1.83333 41.2502 1.83333Z" fill="black"/>
</g>
</svg>
